<mxfile host="app.diagrams.net" agent="Mozilla/5.0 (Windows NT 10.0; Win64; x64) AppleWebKit/537.36 (KHTML, like Gecko) Chrome/141.0.0.0 Safari/537.36" version="28.2.8">
  <diagram name="Page-1" id="CFSpGEoVWZcy1GpoYEtH">
    <mxGraphModel dx="1188" dy="626" grid="1" gridSize="10" guides="1" tooltips="1" connect="1" arrows="1" fold="1" page="1" pageScale="1" pageWidth="3333" pageHeight="1875" math="0" shadow="0">
      <root>
        <mxCell id="0" />
        <mxCell id="1" parent="0" />
        <mxCell id="zQWQUYmwozIlV-cQEGJw-9" style="rounded=0;orthogonalLoop=1;jettySize=auto;html=1;exitX=0.5;exitY=1;exitDx=0;exitDy=0;entryX=0.5;entryY=0;entryDx=0;entryDy=0;" parent="1" source="zQWQUYmwozIlV-cQEGJw-1" target="zQWQUYmwozIlV-cQEGJw-6" edge="1">
          <mxGeometry relative="1" as="geometry" />
        </mxCell>
        <mxCell id="zQWQUYmwozIlV-cQEGJw-10" style="rounded=0;orthogonalLoop=1;jettySize=auto;html=1;exitX=0.5;exitY=1;exitDx=0;exitDy=0;entryX=0.5;entryY=0;entryDx=0;entryDy=0;" parent="1" source="zQWQUYmwozIlV-cQEGJw-1" target="zQWQUYmwozIlV-cQEGJw-7" edge="1">
          <mxGeometry relative="1" as="geometry" />
        </mxCell>
        <mxCell id="zQWQUYmwozIlV-cQEGJw-11" style="rounded=0;orthogonalLoop=1;jettySize=auto;html=1;exitX=0.5;exitY=1;exitDx=0;exitDy=0;entryX=0.5;entryY=0;entryDx=0;entryDy=0;" parent="1" source="zQWQUYmwozIlV-cQEGJw-1" target="zQWQUYmwozIlV-cQEGJw-8" edge="1">
          <mxGeometry relative="1" as="geometry" />
        </mxCell>
        <mxCell id="zQWQUYmwozIlV-cQEGJw-1" value="Citizen Satisfaction Index (CSI)" style="ellipse;whiteSpace=wrap;html=1;" parent="1" vertex="1">
          <mxGeometry x="1200" y="480" width="160" height="80" as="geometry" />
        </mxCell>
        <mxCell id="zQWQUYmwozIlV-cQEGJw-16" style="rounded=0;orthogonalLoop=1;jettySize=auto;html=1;exitX=0;exitY=1;exitDx=0;exitDy=0;entryX=1;entryY=0;entryDx=0;entryDy=0;" parent="1" source="zQWQUYmwozIlV-cQEGJw-2" target="zQWQUYmwozIlV-cQEGJw-1" edge="1">
          <mxGeometry relative="1" as="geometry" />
        </mxCell>
        <mxCell id="zQWQUYmwozIlV-cQEGJw-32" style="rounded=0;orthogonalLoop=1;jettySize=auto;html=1;exitX=0;exitY=0;exitDx=0;exitDy=0;entryX=0.5;entryY=1;entryDx=0;entryDy=0;" parent="1" source="zQWQUYmwozIlV-cQEGJw-2" target="zQWQUYmwozIlV-cQEGJw-28" edge="1">
          <mxGeometry relative="1" as="geometry" />
        </mxCell>
        <mxCell id="zQWQUYmwozIlV-cQEGJw-33" style="rounded=0;orthogonalLoop=1;jettySize=auto;html=1;exitX=0.35;exitY=0;exitDx=0;exitDy=0;entryX=0.5;entryY=1;entryDx=0;entryDy=0;exitPerimeter=0;" parent="1" source="zQWQUYmwozIlV-cQEGJw-2" target="zQWQUYmwozIlV-cQEGJw-29" edge="1">
          <mxGeometry relative="1" as="geometry" />
        </mxCell>
        <mxCell id="zQWQUYmwozIlV-cQEGJw-34" style="rounded=0;orthogonalLoop=1;jettySize=auto;html=1;exitX=0.675;exitY=0.067;exitDx=0;exitDy=0;entryX=0.5;entryY=1;entryDx=0;entryDy=0;exitPerimeter=0;" parent="1" source="zQWQUYmwozIlV-cQEGJw-2" target="zQWQUYmwozIlV-cQEGJw-30" edge="1">
          <mxGeometry relative="1" as="geometry" />
        </mxCell>
        <mxCell id="zQWQUYmwozIlV-cQEGJw-35" style="rounded=0;orthogonalLoop=1;jettySize=auto;html=1;exitX=1;exitY=0;exitDx=0;exitDy=0;entryX=0.5;entryY=1;entryDx=0;entryDy=0;" parent="1" source="zQWQUYmwozIlV-cQEGJw-2" target="zQWQUYmwozIlV-cQEGJw-31" edge="1">
          <mxGeometry relative="1" as="geometry" />
        </mxCell>
        <mxCell id="zQWQUYmwozIlV-cQEGJw-2" value="Responses" style="ellipse;whiteSpace=wrap;html=1;" parent="1" vertex="1">
          <mxGeometry x="1480" y="420" width="80" height="60" as="geometry" />
        </mxCell>
        <mxCell id="zQWQUYmwozIlV-cQEGJw-17" style="rounded=0;orthogonalLoop=1;jettySize=auto;html=1;exitX=0;exitY=0;exitDx=0;exitDy=0;entryX=1;entryY=1;entryDx=0;entryDy=0;" parent="1" source="zQWQUYmwozIlV-cQEGJw-3" target="zQWQUYmwozIlV-cQEGJw-1" edge="1">
          <mxGeometry relative="1" as="geometry" />
        </mxCell>
        <mxCell id="zQWQUYmwozIlV-cQEGJw-3" value="Access" style="ellipse;whiteSpace=wrap;html=1;" parent="1" vertex="1">
          <mxGeometry x="1480" y="560" width="80" height="60" as="geometry" />
        </mxCell>
        <mxCell id="zQWQUYmwozIlV-cQEGJw-13" style="rounded=0;orthogonalLoop=1;jettySize=auto;html=1;exitX=1;exitY=0;exitDx=0;exitDy=0;entryX=0;entryY=1;entryDx=0;entryDy=0;" parent="1" source="zQWQUYmwozIlV-cQEGJw-4" target="zQWQUYmwozIlV-cQEGJw-1" edge="1">
          <mxGeometry relative="1" as="geometry" />
        </mxCell>
        <mxCell id="zQWQUYmwozIlV-cQEGJw-4" value="Regulation" style="ellipse;whiteSpace=wrap;html=1;" parent="1" vertex="1">
          <mxGeometry x="1000" y="560" width="80" height="60" as="geometry" />
        </mxCell>
        <mxCell id="zQWQUYmwozIlV-cQEGJw-15" style="rounded=0;orthogonalLoop=1;jettySize=auto;html=1;exitX=1;exitY=1;exitDx=0;exitDy=0;entryX=0;entryY=0;entryDx=0;entryDy=0;" parent="1" source="zQWQUYmwozIlV-cQEGJw-5" target="zQWQUYmwozIlV-cQEGJw-1" edge="1">
          <mxGeometry relative="1" as="geometry" />
        </mxCell>
        <mxCell id="zQWQUYmwozIlV-cQEGJw-23" style="rounded=0;orthogonalLoop=1;jettySize=auto;html=1;exitX=0;exitY=0.5;exitDx=0;exitDy=0;entryX=0.5;entryY=1;entryDx=0;entryDy=0;" parent="1" source="zQWQUYmwozIlV-cQEGJw-5" target="zQWQUYmwozIlV-cQEGJw-18" edge="1">
          <mxGeometry relative="1" as="geometry" />
        </mxCell>
        <mxCell id="zQWQUYmwozIlV-cQEGJw-24" style="rounded=0;orthogonalLoop=1;jettySize=auto;html=1;exitX=0;exitY=0;exitDx=0;exitDy=0;entryX=0.5;entryY=1;entryDx=0;entryDy=0;" parent="1" source="zQWQUYmwozIlV-cQEGJw-5" target="zQWQUYmwozIlV-cQEGJw-19" edge="1">
          <mxGeometry relative="1" as="geometry" />
        </mxCell>
        <mxCell id="zQWQUYmwozIlV-cQEGJw-25" style="rounded=0;orthogonalLoop=1;jettySize=auto;html=1;exitX=0.5;exitY=0;exitDx=0;exitDy=0;entryX=0.5;entryY=1;entryDx=0;entryDy=0;" parent="1" source="zQWQUYmwozIlV-cQEGJw-5" target="zQWQUYmwozIlV-cQEGJw-20" edge="1">
          <mxGeometry relative="1" as="geometry" />
        </mxCell>
        <mxCell id="zQWQUYmwozIlV-cQEGJw-26" style="rounded=0;orthogonalLoop=1;jettySize=auto;html=1;exitX=1;exitY=0;exitDx=0;exitDy=0;entryX=0.5;entryY=1;entryDx=0;entryDy=0;" parent="1" source="zQWQUYmwozIlV-cQEGJw-5" target="zQWQUYmwozIlV-cQEGJw-21" edge="1">
          <mxGeometry relative="1" as="geometry" />
        </mxCell>
        <mxCell id="zQWQUYmwozIlV-cQEGJw-27" style="rounded=0;orthogonalLoop=1;jettySize=auto;html=1;exitX=1;exitY=0.5;exitDx=0;exitDy=0;entryX=0.5;entryY=1;entryDx=0;entryDy=0;" parent="1" source="zQWQUYmwozIlV-cQEGJw-5" target="zQWQUYmwozIlV-cQEGJw-22" edge="1">
          <mxGeometry relative="1" as="geometry" />
        </mxCell>
        <mxCell id="zQWQUYmwozIlV-cQEGJw-5" value="Officials" style="ellipse;whiteSpace=wrap;html=1;" parent="1" vertex="1">
          <mxGeometry x="1000" y="420" width="80" height="60" as="geometry" />
        </mxCell>
        <mxCell id="zQWQUYmwozIlV-cQEGJw-6" value="DQ1" style="rounded=0;whiteSpace=wrap;html=1;" parent="1" vertex="1">
          <mxGeometry x="1170" y="600" width="60" height="40" as="geometry" />
        </mxCell>
        <mxCell id="zQWQUYmwozIlV-cQEGJw-7" value="DQ2" style="rounded=0;whiteSpace=wrap;html=1;" parent="1" vertex="1">
          <mxGeometry x="1250" y="600" width="60" height="40" as="geometry" />
        </mxCell>
        <mxCell id="zQWQUYmwozIlV-cQEGJw-8" value="DQ3" style="rounded=0;whiteSpace=wrap;html=1;" parent="1" vertex="1">
          <mxGeometry x="1330" y="600" width="60" height="40" as="geometry" />
        </mxCell>
        <mxCell id="zQWQUYmwozIlV-cQEGJw-18" value="CQ1" style="rounded=0;whiteSpace=wrap;html=1;" parent="1" vertex="1">
          <mxGeometry x="850" y="340" width="60" height="40" as="geometry" />
        </mxCell>
        <mxCell id="zQWQUYmwozIlV-cQEGJw-19" value="CQ2" style="rounded=0;whiteSpace=wrap;html=1;" parent="1" vertex="1">
          <mxGeometry x="930" y="340" width="60" height="40" as="geometry" />
        </mxCell>
        <mxCell id="zQWQUYmwozIlV-cQEGJw-20" value="CQ3" style="rounded=0;whiteSpace=wrap;html=1;" parent="1" vertex="1">
          <mxGeometry x="1010" y="340" width="60" height="40" as="geometry" />
        </mxCell>
        <mxCell id="zQWQUYmwozIlV-cQEGJw-21" value="CQ4" style="rounded=0;whiteSpace=wrap;html=1;" parent="1" vertex="1">
          <mxGeometry x="1090" y="340" width="60" height="40" as="geometry" />
        </mxCell>
        <mxCell id="zQWQUYmwozIlV-cQEGJw-22" value="CQ5" style="rounded=0;whiteSpace=wrap;html=1;" parent="1" vertex="1">
          <mxGeometry x="1170" y="340" width="60" height="40" as="geometry" />
        </mxCell>
        <mxCell id="zQWQUYmwozIlV-cQEGJw-28" value="EQ1" style="rounded=0;whiteSpace=wrap;html=1;" parent="1" vertex="1">
          <mxGeometry x="1370" y="340" width="60" height="40" as="geometry" />
        </mxCell>
        <mxCell id="zQWQUYmwozIlV-cQEGJw-29" value="EQ2" style="rounded=0;whiteSpace=wrap;html=1;" parent="1" vertex="1">
          <mxGeometry x="1450" y="340" width="60" height="40" as="geometry" />
        </mxCell>
        <mxCell id="zQWQUYmwozIlV-cQEGJw-30" value="EQ3" style="rounded=0;whiteSpace=wrap;html=1;" parent="1" vertex="1">
          <mxGeometry x="1530" y="340" width="60" height="40" as="geometry" />
        </mxCell>
        <mxCell id="zQWQUYmwozIlV-cQEGJw-31" value="EQ4" style="rounded=0;whiteSpace=wrap;html=1;" parent="1" vertex="1">
          <mxGeometry x="1610" y="340" width="60" height="40" as="geometry" />
        </mxCell>
        <mxCell id="zQWQUYmwozIlV-cQEGJw-41" style="rounded=0;orthogonalLoop=1;jettySize=auto;html=1;exitX=1;exitY=0.5;exitDx=0;exitDy=0;entryX=0;entryY=0;entryDx=0;entryDy=0;" parent="1" source="zQWQUYmwozIlV-cQEGJw-36" target="zQWQUYmwozIlV-cQEGJw-4" edge="1">
          <mxGeometry relative="1" as="geometry" />
        </mxCell>
        <mxCell id="zQWQUYmwozIlV-cQEGJw-36" value="BQ1" style="rounded=0;whiteSpace=wrap;html=1;" parent="1" vertex="1">
          <mxGeometry x="850" y="540" width="60" height="40" as="geometry" />
        </mxCell>
        <mxCell id="zQWQUYmwozIlV-cQEGJw-42" style="rounded=0;orthogonalLoop=1;jettySize=auto;html=1;exitX=1;exitY=0.5;exitDx=0;exitDy=0;entryX=0;entryY=0.5;entryDx=0;entryDy=0;" parent="1" source="zQWQUYmwozIlV-cQEGJw-37" target="zQWQUYmwozIlV-cQEGJw-4" edge="1">
          <mxGeometry relative="1" as="geometry" />
        </mxCell>
        <mxCell id="zQWQUYmwozIlV-cQEGJw-37" value="BQ2" style="rounded=0;whiteSpace=wrap;html=1;" parent="1" vertex="1">
          <mxGeometry x="850" y="600" width="60" height="40" as="geometry" />
        </mxCell>
        <mxCell id="zQWQUYmwozIlV-cQEGJw-43" style="rounded=0;orthogonalLoop=1;jettySize=auto;html=1;exitX=1;exitY=0;exitDx=0;exitDy=0;entryX=0.038;entryY=0.733;entryDx=0;entryDy=0;entryPerimeter=0;" parent="1" source="zQWQUYmwozIlV-cQEGJw-38" target="zQWQUYmwozIlV-cQEGJw-4" edge="1">
          <mxGeometry relative="1" as="geometry" />
        </mxCell>
        <mxCell id="zQWQUYmwozIlV-cQEGJw-38" value="BQ3" style="rounded=0;whiteSpace=wrap;html=1;" parent="1" vertex="1">
          <mxGeometry x="850" y="660" width="60" height="40" as="geometry" />
        </mxCell>
        <mxCell id="zQWQUYmwozIlV-cQEGJw-45" style="rounded=0;orthogonalLoop=1;jettySize=auto;html=1;exitX=0.5;exitY=0;exitDx=0;exitDy=0;entryX=0;entryY=1;entryDx=0;entryDy=0;" parent="1" source="zQWQUYmwozIlV-cQEGJw-39" target="zQWQUYmwozIlV-cQEGJw-4" edge="1">
          <mxGeometry relative="1" as="geometry" />
        </mxCell>
        <mxCell id="zQWQUYmwozIlV-cQEGJw-39" value="BQ4" style="rounded=0;whiteSpace=wrap;html=1;" parent="1" vertex="1">
          <mxGeometry x="930" y="660" width="60" height="40" as="geometry" />
        </mxCell>
        <mxCell id="zQWQUYmwozIlV-cQEGJw-44" style="rounded=0;orthogonalLoop=1;jettySize=auto;html=1;exitX=0.5;exitY=0;exitDx=0;exitDy=0;entryX=0.5;entryY=1;entryDx=0;entryDy=0;" parent="1" source="zQWQUYmwozIlV-cQEGJw-40" target="zQWQUYmwozIlV-cQEGJw-4" edge="1">
          <mxGeometry relative="1" as="geometry" />
        </mxCell>
        <mxCell id="zQWQUYmwozIlV-cQEGJw-40" value="BQ5" style="rounded=0;whiteSpace=wrap;html=1;" parent="1" vertex="1">
          <mxGeometry x="1010" y="660" width="60" height="40" as="geometry" />
        </mxCell>
        <mxCell id="zQWQUYmwozIlV-cQEGJw-54" style="rounded=0;orthogonalLoop=1;jettySize=auto;html=1;exitX=0;exitY=0.5;exitDx=0;exitDy=0;entryX=1;entryY=0;entryDx=0;entryDy=0;" parent="1" source="zQWQUYmwozIlV-cQEGJw-46" target="zQWQUYmwozIlV-cQEGJw-3" edge="1">
          <mxGeometry relative="1" as="geometry" />
        </mxCell>
        <mxCell id="zQWQUYmwozIlV-cQEGJw-46" value="AQ1" style="rounded=0;whiteSpace=wrap;html=1;" parent="1" vertex="1">
          <mxGeometry x="1620" y="540" width="60" height="40" as="geometry" />
        </mxCell>
        <mxCell id="zQWQUYmwozIlV-cQEGJw-55" style="rounded=0;orthogonalLoop=1;jettySize=auto;html=1;exitX=0;exitY=0.5;exitDx=0;exitDy=0;entryX=1;entryY=0.5;entryDx=0;entryDy=0;" parent="1" source="zQWQUYmwozIlV-cQEGJw-47" target="zQWQUYmwozIlV-cQEGJw-3" edge="1">
          <mxGeometry relative="1" as="geometry" />
        </mxCell>
        <mxCell id="zQWQUYmwozIlV-cQEGJw-47" value="AQ2" style="rounded=0;whiteSpace=wrap;html=1;" parent="1" vertex="1">
          <mxGeometry x="1620" y="600" width="60" height="40" as="geometry" />
        </mxCell>
        <mxCell id="zQWQUYmwozIlV-cQEGJw-56" style="rounded=0;orthogonalLoop=1;jettySize=auto;html=1;exitX=0;exitY=0.5;exitDx=0;exitDy=0;entryX=1;entryY=1;entryDx=0;entryDy=0;" parent="1" source="zQWQUYmwozIlV-cQEGJw-48" target="zQWQUYmwozIlV-cQEGJw-3" edge="1">
          <mxGeometry relative="1" as="geometry" />
        </mxCell>
        <mxCell id="zQWQUYmwozIlV-cQEGJw-48" value="AQ3" style="rounded=0;whiteSpace=wrap;html=1;" parent="1" vertex="1">
          <mxGeometry x="1620" y="660" width="60" height="40" as="geometry" />
        </mxCell>
        <mxCell id="zQWQUYmwozIlV-cQEGJw-57" style="rounded=0;orthogonalLoop=1;jettySize=auto;html=1;exitX=0;exitY=0;exitDx=0;exitDy=0;entryX=0.713;entryY=0.983;entryDx=0;entryDy=0;entryPerimeter=0;" parent="1" source="zQWQUYmwozIlV-cQEGJw-49" target="zQWQUYmwozIlV-cQEGJw-3" edge="1">
          <mxGeometry relative="1" as="geometry" />
        </mxCell>
        <mxCell id="zQWQUYmwozIlV-cQEGJw-49" value="AQ4" style="rounded=0;whiteSpace=wrap;html=1;" parent="1" vertex="1">
          <mxGeometry x="1620" y="720" width="60" height="40" as="geometry" />
        </mxCell>
        <mxCell id="zQWQUYmwozIlV-cQEGJw-58" style="rounded=0;orthogonalLoop=1;jettySize=auto;html=1;exitX=0.5;exitY=0;exitDx=0;exitDy=0;entryX=0.5;entryY=1;entryDx=0;entryDy=0;" parent="1" source="zQWQUYmwozIlV-cQEGJw-50" target="zQWQUYmwozIlV-cQEGJw-3" edge="1">
          <mxGeometry relative="1" as="geometry" />
        </mxCell>
        <mxCell id="zQWQUYmwozIlV-cQEGJw-50" value="AQ5" style="rounded=0;whiteSpace=wrap;html=1;" parent="1" vertex="1">
          <mxGeometry x="1540" y="720" width="60" height="40" as="geometry" />
        </mxCell>
        <mxCell id="zQWQUYmwozIlV-cQEGJw-59" style="rounded=0;orthogonalLoop=1;jettySize=auto;html=1;exitX=0.5;exitY=0;exitDx=0;exitDy=0;entryX=0.3;entryY=1;entryDx=0;entryDy=0;entryPerimeter=0;" parent="1" source="zQWQUYmwozIlV-cQEGJw-51" target="zQWQUYmwozIlV-cQEGJw-3" edge="1">
          <mxGeometry relative="1" as="geometry" />
        </mxCell>
        <mxCell id="zQWQUYmwozIlV-cQEGJw-51" value="AQ6" style="rounded=0;whiteSpace=wrap;html=1;" parent="1" vertex="1">
          <mxGeometry x="1460" y="720" width="60" height="40" as="geometry" />
        </mxCell>
        <mxCell id="zQWQUYmwozIlV-cQEGJw-60" style="rounded=0;orthogonalLoop=1;jettySize=auto;html=1;exitX=0.5;exitY=0;exitDx=0;exitDy=0;entryX=0;entryY=1;entryDx=0;entryDy=0;" parent="1" source="zQWQUYmwozIlV-cQEGJw-52" target="zQWQUYmwozIlV-cQEGJw-3" edge="1">
          <mxGeometry relative="1" as="geometry" />
        </mxCell>
        <mxCell id="zQWQUYmwozIlV-cQEGJw-52" value="AQ7" style="rounded=0;whiteSpace=wrap;html=1;" parent="1" vertex="1">
          <mxGeometry x="1380" y="720" width="60" height="40" as="geometry" />
        </mxCell>
        <mxCell id="PjgOYG76Z9MTVnk4mTRI-49" style="rounded=0;orthogonalLoop=1;jettySize=auto;html=1;exitX=1;exitY=0.5;exitDx=0;exitDy=0;entryX=0;entryY=0.5;entryDx=0;entryDy=0;fillColor=#b1ddf0;strokeColor=#10739e;" edge="1" parent="1" source="PjgOYG76Z9MTVnk4mTRI-1" target="PjgOYG76Z9MTVnk4mTRI-23">
          <mxGeometry relative="1" as="geometry" />
        </mxCell>
        <mxCell id="PjgOYG76Z9MTVnk4mTRI-50" style="rounded=0;orthogonalLoop=1;jettySize=auto;html=1;exitX=1;exitY=0.5;exitDx=0;exitDy=0;entryX=0;entryY=0.5;entryDx=0;entryDy=0;fillColor=#b1ddf0;strokeColor=#10739e;" edge="1" parent="1" source="PjgOYG76Z9MTVnk4mTRI-1" target="PjgOYG76Z9MTVnk4mTRI-24">
          <mxGeometry relative="1" as="geometry" />
        </mxCell>
        <mxCell id="PjgOYG76Z9MTVnk4mTRI-51" style="rounded=0;orthogonalLoop=1;jettySize=auto;html=1;exitX=1;exitY=0.5;exitDx=0;exitDy=0;entryX=0;entryY=0.5;entryDx=0;entryDy=0;fillColor=#b1ddf0;strokeColor=#10739e;" edge="1" parent="1" source="PjgOYG76Z9MTVnk4mTRI-1" target="PjgOYG76Z9MTVnk4mTRI-25">
          <mxGeometry relative="1" as="geometry" />
        </mxCell>
        <mxCell id="PjgOYG76Z9MTVnk4mTRI-1" value="Citizen Satisfaction" style="ellipse;whiteSpace=wrap;html=1;fillColor=#b1ddf0;strokeColor=#10739e;" vertex="1" parent="1">
          <mxGeometry x="2400" y="440" width="160" height="80" as="geometry" />
        </mxCell>
        <mxCell id="PjgOYG76Z9MTVnk4mTRI-9" style="rounded=0;orthogonalLoop=1;jettySize=auto;html=1;exitX=0;exitY=1;exitDx=0;exitDy=0;entryX=1;entryY=0;entryDx=0;entryDy=0;" edge="1" parent="1" source="PjgOYG76Z9MTVnk4mTRI-2" target="PjgOYG76Z9MTVnk4mTRI-1">
          <mxGeometry relative="1" as="geometry" />
        </mxCell>
        <mxCell id="PjgOYG76Z9MTVnk4mTRI-44" style="rounded=0;orthogonalLoop=1;jettySize=auto;html=1;exitX=1;exitY=0.5;exitDx=0;exitDy=0;entryX=0;entryY=0.5;entryDx=0;entryDy=0;" edge="1" parent="1" source="PjgOYG76Z9MTVnk4mTRI-2" target="PjgOYG76Z9MTVnk4mTRI-18">
          <mxGeometry relative="1" as="geometry" />
        </mxCell>
        <mxCell id="PjgOYG76Z9MTVnk4mTRI-45" style="rounded=0;orthogonalLoop=1;jettySize=auto;html=1;exitX=1;exitY=0.5;exitDx=0;exitDy=0;entryX=0;entryY=0.5;entryDx=0;entryDy=0;" edge="1" parent="1" source="PjgOYG76Z9MTVnk4mTRI-2" target="PjgOYG76Z9MTVnk4mTRI-19">
          <mxGeometry relative="1" as="geometry" />
        </mxCell>
        <mxCell id="PjgOYG76Z9MTVnk4mTRI-46" style="rounded=0;orthogonalLoop=1;jettySize=auto;html=1;exitX=1;exitY=0.5;exitDx=0;exitDy=0;entryX=0;entryY=0.5;entryDx=0;entryDy=0;" edge="1" parent="1" source="PjgOYG76Z9MTVnk4mTRI-2" target="PjgOYG76Z9MTVnk4mTRI-20">
          <mxGeometry relative="1" as="geometry" />
        </mxCell>
        <mxCell id="PjgOYG76Z9MTVnk4mTRI-47" style="rounded=0;orthogonalLoop=1;jettySize=auto;html=1;exitX=1;exitY=0.5;exitDx=0;exitDy=0;entryX=0;entryY=0.5;entryDx=0;entryDy=0;" edge="1" parent="1" source="PjgOYG76Z9MTVnk4mTRI-2" target="PjgOYG76Z9MTVnk4mTRI-21">
          <mxGeometry relative="1" as="geometry" />
        </mxCell>
        <mxCell id="PjgOYG76Z9MTVnk4mTRI-48" style="rounded=0;orthogonalLoop=1;jettySize=auto;html=1;exitX=1;exitY=0.5;exitDx=0;exitDy=0;entryX=0;entryY=0.5;entryDx=0;entryDy=0;" edge="1" parent="1" source="PjgOYG76Z9MTVnk4mTRI-2" target="PjgOYG76Z9MTVnk4mTRI-22">
          <mxGeometry relative="1" as="geometry" />
        </mxCell>
        <mxCell id="PjgOYG76Z9MTVnk4mTRI-2" value="Regulation on public service procedures" style="ellipse;whiteSpace=wrap;html=1;" vertex="1" parent="1">
          <mxGeometry x="2520" y="320" width="160" height="80" as="geometry" />
        </mxCell>
        <mxCell id="PjgOYG76Z9MTVnk4mTRI-10" style="rounded=0;orthogonalLoop=1;jettySize=auto;html=1;exitX=0.5;exitY=1;exitDx=0;exitDy=0;entryX=0.5;entryY=0;entryDx=0;entryDy=0;" edge="1" parent="1" source="PjgOYG76Z9MTVnk4mTRI-3" target="PjgOYG76Z9MTVnk4mTRI-1">
          <mxGeometry relative="1" as="geometry" />
        </mxCell>
        <mxCell id="PjgOYG76Z9MTVnk4mTRI-36" style="rounded=0;orthogonalLoop=1;jettySize=auto;html=1;exitX=1;exitY=0.5;exitDx=0;exitDy=0;entryX=0;entryY=0.5;entryDx=0;entryDy=0;" edge="1" parent="1" source="PjgOYG76Z9MTVnk4mTRI-3" target="PjgOYG76Z9MTVnk4mTRI-11">
          <mxGeometry relative="1" as="geometry" />
        </mxCell>
        <mxCell id="PjgOYG76Z9MTVnk4mTRI-37" style="rounded=0;orthogonalLoop=1;jettySize=auto;html=1;exitX=1;exitY=0.5;exitDx=0;exitDy=0;entryX=0;entryY=0.5;entryDx=0;entryDy=0;" edge="1" parent="1" source="PjgOYG76Z9MTVnk4mTRI-3" target="PjgOYG76Z9MTVnk4mTRI-12">
          <mxGeometry relative="1" as="geometry" />
        </mxCell>
        <mxCell id="PjgOYG76Z9MTVnk4mTRI-38" style="rounded=0;orthogonalLoop=1;jettySize=auto;html=1;exitX=1;exitY=0.5;exitDx=0;exitDy=0;entryX=0;entryY=0.5;entryDx=0;entryDy=0;" edge="1" parent="1" source="PjgOYG76Z9MTVnk4mTRI-3" target="PjgOYG76Z9MTVnk4mTRI-13">
          <mxGeometry relative="1" as="geometry" />
        </mxCell>
        <mxCell id="PjgOYG76Z9MTVnk4mTRI-39" style="rounded=0;orthogonalLoop=1;jettySize=auto;html=1;exitX=1;exitY=0.5;exitDx=0;exitDy=0;entryX=0;entryY=0.5;entryDx=0;entryDy=0;" edge="1" parent="1" source="PjgOYG76Z9MTVnk4mTRI-3" target="PjgOYG76Z9MTVnk4mTRI-14">
          <mxGeometry relative="1" as="geometry" />
        </mxCell>
        <mxCell id="PjgOYG76Z9MTVnk4mTRI-40" style="rounded=0;orthogonalLoop=1;jettySize=auto;html=1;exitX=1;exitY=0.5;exitDx=0;exitDy=0;entryX=0;entryY=0.5;entryDx=0;entryDy=0;" edge="1" parent="1" source="PjgOYG76Z9MTVnk4mTRI-3" target="PjgOYG76Z9MTVnk4mTRI-15">
          <mxGeometry relative="1" as="geometry" />
        </mxCell>
        <mxCell id="PjgOYG76Z9MTVnk4mTRI-41" style="rounded=0;orthogonalLoop=1;jettySize=auto;html=1;exitX=1;exitY=0.5;exitDx=0;exitDy=0;entryX=0;entryY=0.5;entryDx=0;entryDy=0;" edge="1" parent="1" source="PjgOYG76Z9MTVnk4mTRI-3" target="PjgOYG76Z9MTVnk4mTRI-16">
          <mxGeometry relative="1" as="geometry" />
        </mxCell>
        <mxCell id="PjgOYG76Z9MTVnk4mTRI-42" style="rounded=0;orthogonalLoop=1;jettySize=auto;html=1;exitX=1;exitY=0.5;exitDx=0;exitDy=0;entryX=0;entryY=0.5;entryDx=0;entryDy=0;" edge="1" parent="1" source="PjgOYG76Z9MTVnk4mTRI-3" target="PjgOYG76Z9MTVnk4mTRI-17">
          <mxGeometry relative="1" as="geometry" />
        </mxCell>
        <mxCell id="PjgOYG76Z9MTVnk4mTRI-3" value="Access to public administration services" style="ellipse;whiteSpace=wrap;html=1;" vertex="1" parent="1">
          <mxGeometry x="2440" y="160" width="160" height="80" as="geometry" />
        </mxCell>
        <mxCell id="PjgOYG76Z9MTVnk4mTRI-7" style="rounded=0;orthogonalLoop=1;jettySize=auto;html=1;exitX=0;exitY=0;exitDx=0;exitDy=0;entryX=1;entryY=1;entryDx=0;entryDy=0;" edge="1" parent="1" source="PjgOYG76Z9MTVnk4mTRI-4" target="PjgOYG76Z9MTVnk4mTRI-1">
          <mxGeometry relative="1" as="geometry" />
        </mxCell>
        <mxCell id="PjgOYG76Z9MTVnk4mTRI-53" style="rounded=0;orthogonalLoop=1;jettySize=auto;html=1;exitX=1;exitY=0.5;exitDx=0;exitDy=0;entryX=0;entryY=0.5;entryDx=0;entryDy=0;" edge="1" parent="1" source="PjgOYG76Z9MTVnk4mTRI-4" target="PjgOYG76Z9MTVnk4mTRI-26">
          <mxGeometry relative="1" as="geometry" />
        </mxCell>
        <mxCell id="PjgOYG76Z9MTVnk4mTRI-54" style="rounded=0;orthogonalLoop=1;jettySize=auto;html=1;exitX=1;exitY=0.5;exitDx=0;exitDy=0;entryX=0;entryY=0.5;entryDx=0;entryDy=0;" edge="1" parent="1" source="PjgOYG76Z9MTVnk4mTRI-4" target="PjgOYG76Z9MTVnk4mTRI-27">
          <mxGeometry relative="1" as="geometry" />
        </mxCell>
        <mxCell id="PjgOYG76Z9MTVnk4mTRI-55" style="rounded=0;orthogonalLoop=1;jettySize=auto;html=1;exitX=1;exitY=0.5;exitDx=0;exitDy=0;entryX=0;entryY=0.5;entryDx=0;entryDy=0;" edge="1" parent="1" source="PjgOYG76Z9MTVnk4mTRI-4" target="PjgOYG76Z9MTVnk4mTRI-28">
          <mxGeometry relative="1" as="geometry" />
        </mxCell>
        <mxCell id="PjgOYG76Z9MTVnk4mTRI-56" style="rounded=0;orthogonalLoop=1;jettySize=auto;html=1;exitX=1;exitY=0.5;exitDx=0;exitDy=0;entryX=0;entryY=0.5;entryDx=0;entryDy=0;" edge="1" parent="1" source="PjgOYG76Z9MTVnk4mTRI-4" target="PjgOYG76Z9MTVnk4mTRI-29">
          <mxGeometry relative="1" as="geometry" />
        </mxCell>
        <mxCell id="PjgOYG76Z9MTVnk4mTRI-57" style="rounded=0;orthogonalLoop=1;jettySize=auto;html=1;exitX=1;exitY=0.5;exitDx=0;exitDy=0;entryX=0;entryY=0.5;entryDx=0;entryDy=0;" edge="1" parent="1" source="PjgOYG76Z9MTVnk4mTRI-4" target="PjgOYG76Z9MTVnk4mTRI-30">
          <mxGeometry relative="1" as="geometry" />
        </mxCell>
        <mxCell id="PjgOYG76Z9MTVnk4mTRI-4" value="Quality of administrative officials" style="ellipse;whiteSpace=wrap;html=1;" vertex="1" parent="1">
          <mxGeometry x="2520" y="560" width="160" height="80" as="geometry" />
        </mxCell>
        <mxCell id="PjgOYG76Z9MTVnk4mTRI-8" style="rounded=0;orthogonalLoop=1;jettySize=auto;html=1;exitX=0.5;exitY=0;exitDx=0;exitDy=0;entryX=0.5;entryY=1;entryDx=0;entryDy=0;" edge="1" parent="1" source="PjgOYG76Z9MTVnk4mTRI-5" target="PjgOYG76Z9MTVnk4mTRI-1">
          <mxGeometry relative="1" as="geometry" />
        </mxCell>
        <mxCell id="PjgOYG76Z9MTVnk4mTRI-58" style="rounded=0;orthogonalLoop=1;jettySize=auto;html=1;exitX=1;exitY=0.5;exitDx=0;exitDy=0;entryX=0;entryY=0.5;entryDx=0;entryDy=0;" edge="1" parent="1" source="PjgOYG76Z9MTVnk4mTRI-5" target="PjgOYG76Z9MTVnk4mTRI-31">
          <mxGeometry relative="1" as="geometry" />
        </mxCell>
        <mxCell id="PjgOYG76Z9MTVnk4mTRI-59" style="rounded=0;orthogonalLoop=1;jettySize=auto;html=1;exitX=1;exitY=0.5;exitDx=0;exitDy=0;entryX=0;entryY=0.5;entryDx=0;entryDy=0;" edge="1" parent="1" source="PjgOYG76Z9MTVnk4mTRI-5" target="PjgOYG76Z9MTVnk4mTRI-32">
          <mxGeometry relative="1" as="geometry" />
        </mxCell>
        <mxCell id="PjgOYG76Z9MTVnk4mTRI-60" style="rounded=0;orthogonalLoop=1;jettySize=auto;html=1;exitX=1;exitY=0.5;exitDx=0;exitDy=0;entryX=0;entryY=0.5;entryDx=0;entryDy=0;" edge="1" parent="1" source="PjgOYG76Z9MTVnk4mTRI-5" target="PjgOYG76Z9MTVnk4mTRI-33">
          <mxGeometry relative="1" as="geometry" />
        </mxCell>
        <mxCell id="PjgOYG76Z9MTVnk4mTRI-61" style="rounded=0;orthogonalLoop=1;jettySize=auto;html=1;exitX=1;exitY=0.5;exitDx=0;exitDy=0;entryX=0;entryY=0.5;entryDx=0;entryDy=0;" edge="1" parent="1" source="PjgOYG76Z9MTVnk4mTRI-5" target="PjgOYG76Z9MTVnk4mTRI-34">
          <mxGeometry relative="1" as="geometry" />
        </mxCell>
        <mxCell id="PjgOYG76Z9MTVnk4mTRI-5" value="Responses to complaints" style="ellipse;whiteSpace=wrap;html=1;" vertex="1" parent="1">
          <mxGeometry x="2440" y="720" width="160" height="80" as="geometry" />
        </mxCell>
        <mxCell id="PjgOYG76Z9MTVnk4mTRI-11" value="&lt;div&gt;Easy to find information about public administration offices&lt;/div&gt;" style="rounded=0;whiteSpace=wrap;html=1;" vertex="1" parent="1">
          <mxGeometry x="2640" y="110" width="240" height="40" as="geometry" />
        </mxCell>
        <mxCell id="PjgOYG76Z9MTVnk4mTRI-12" value="&lt;div&gt;Easy to find office location&lt;/div&gt;" style="rounded=0;whiteSpace=wrap;html=1;" vertex="1" parent="1">
          <mxGeometry x="2640" y="150" width="240" height="20" as="geometry" />
        </mxCell>
        <mxCell id="PjgOYG76Z9MTVnk4mTRI-13" value="&lt;div&gt;Comfortability of the office&lt;/div&gt;" style="rounded=0;whiteSpace=wrap;html=1;" vertex="1" parent="1">
          <mxGeometry x="2640" y="170" width="240" height="20" as="geometry" />
        </mxCell>
        <mxCell id="PjgOYG76Z9MTVnk4mTRI-14" value="&lt;div&gt;Conditions of the office’s equipment&lt;/div&gt;" style="rounded=0;whiteSpace=wrap;html=1;" vertex="1" parent="1">
          <mxGeometry x="2640" y="190" width="240" height="20" as="geometry" />
        </mxCell>
        <mxCell id="PjgOYG76Z9MTVnk4mTRI-15" value="&lt;div&gt;Easy to access the government websites&lt;/div&gt;" style="rounded=0;whiteSpace=wrap;html=1;" vertex="1" parent="1">
          <mxGeometry x="2640" y="210" width="240" height="20" as="geometry" />
        </mxCell>
        <mxCell id="PjgOYG76Z9MTVnk4mTRI-16" value="&lt;div&gt;Easy to find information on public services on websites&lt;/div&gt;" style="rounded=0;whiteSpace=wrap;html=1;" vertex="1" parent="1">
          <mxGeometry x="2640" y="230" width="240" height="40" as="geometry" />
        </mxCell>
        <mxCell id="PjgOYG76Z9MTVnk4mTRI-17" value="&lt;div&gt;Up to date information&lt;/div&gt;" style="rounded=0;whiteSpace=wrap;html=1;" vertex="1" parent="1">
          <mxGeometry x="2640" y="270" width="240" height="20" as="geometry" />
        </mxCell>
        <mxCell id="PjgOYG76Z9MTVnk4mTRI-18" value="&lt;div&gt;Availability of information&lt;/div&gt;" style="rounded=0;whiteSpace=wrap;html=1;" vertex="1" parent="1">
          <mxGeometry x="2720" y="310" width="240" height="20" as="geometry" />
        </mxCell>
        <mxCell id="PjgOYG76Z9MTVnk4mTRI-19" value="&lt;div&gt;Easy to fill out the document samples&lt;/div&gt;" style="rounded=0;whiteSpace=wrap;html=1;" vertex="1" parent="1">
          <mxGeometry x="2720" y="330" width="240" height="20" as="geometry" />
        </mxCell>
        <mxCell id="PjgOYG76Z9MTVnk4mTRI-20" value="&lt;div&gt;Easy to follow procedures&lt;/div&gt;" style="rounded=0;whiteSpace=wrap;html=1;" vertex="1" parent="1">
          <mxGeometry x="2720" y="350" width="240" height="20" as="geometry" />
        </mxCell>
        <mxCell id="PjgOYG76Z9MTVnk4mTRI-21" value="&lt;div&gt;Reasonability of public service fees&lt;/div&gt;" style="rounded=0;whiteSpace=wrap;html=1;" vertex="1" parent="1">
          <mxGeometry x="2720" y="370" width="240" height="20" as="geometry" />
        </mxCell>
        <mxCell id="PjgOYG76Z9MTVnk4mTRI-22" value="&lt;div&gt;Service processing time&lt;/div&gt;" style="rounded=0;whiteSpace=wrap;html=1;" vertex="1" parent="1">
          <mxGeometry x="2720" y="390" width="240" height="20" as="geometry" />
        </mxCell>
        <mxCell id="PjgOYG76Z9MTVnk4mTRI-23" value="&lt;div&gt;Outcome documents&lt;/div&gt;" style="rounded=0;whiteSpace=wrap;html=1;fillColor=#b1ddf0;strokeColor=#10739e;" vertex="1" parent="1">
          <mxGeometry x="2600" y="450" width="160" height="20" as="geometry" />
        </mxCell>
        <mxCell id="PjgOYG76Z9MTVnk4mTRI-24" value="&lt;div&gt;Service performance&lt;/div&gt;" style="rounded=0;whiteSpace=wrap;html=1;fillColor=#b1ddf0;strokeColor=#10739e;" vertex="1" parent="1">
          <mxGeometry x="2600" y="470" width="160" height="20" as="geometry" />
        </mxCell>
        <mxCell id="PjgOYG76Z9MTVnk4mTRI-25" value="&lt;div&gt;Service transparency&lt;/div&gt;" style="rounded=0;whiteSpace=wrap;html=1;fillColor=#b1ddf0;strokeColor=#10739e;" vertex="1" parent="1">
          <mxGeometry x="2600" y="490" width="160" height="20" as="geometry" />
        </mxCell>
        <mxCell id="PjgOYG76Z9MTVnk4mTRI-26" value="&lt;div&gt;Respect toward citizens&lt;/div&gt;" style="rounded=0;whiteSpace=wrap;html=1;" vertex="1" parent="1">
          <mxGeometry x="2720" y="550" width="240" height="20" as="geometry" />
        </mxCell>
        <mxCell id="PjgOYG76Z9MTVnk4mTRI-27" value="&lt;div&gt;Knowledge and attention to questions&lt;/div&gt;" style="rounded=0;whiteSpace=wrap;html=1;" vertex="1" parent="1">
          <mxGeometry x="2720" y="570" width="240" height="20" as="geometry" />
        </mxCell>
        <mxCell id="PjgOYG76Z9MTVnk4mTRI-28" value="&lt;div&gt;Strictly follow procedures&lt;/div&gt;" style="rounded=0;whiteSpace=wrap;html=1;" vertex="1" parent="1">
          <mxGeometry x="2720" y="590" width="240" height="20" as="geometry" />
        </mxCell>
        <mxCell id="PjgOYG76Z9MTVnk4mTRI-29" value="&lt;div&gt;Non-harassment behaviors&lt;/div&gt;" style="rounded=0;whiteSpace=wrap;html=1;" vertex="1" parent="1">
          <mxGeometry x="2720" y="610" width="240" height="20" as="geometry" />
        </mxCell>
        <mxCell id="PjgOYG76Z9MTVnk4mTRI-30" value="&lt;div&gt;Official’s transparency&lt;/div&gt;" style="rounded=0;whiteSpace=wrap;html=1;" vertex="1" parent="1">
          <mxGeometry x="2720" y="630" width="240" height="20" as="geometry" />
        </mxCell>
        <mxCell id="PjgOYG76Z9MTVnk4mTRI-31" value="&lt;div&gt;Systems installed to receive complaints&lt;/div&gt;" style="rounded=0;whiteSpace=wrap;html=1;" vertex="1" parent="1">
          <mxGeometry x="2640" y="720" width="240" height="20" as="geometry" />
        </mxCell>
        <mxCell id="PjgOYG76Z9MTVnk4mTRI-32" value="&lt;div&gt;Easy to send complaints&lt;/div&gt;" style="rounded=0;whiteSpace=wrap;html=1;" vertex="1" parent="1">
          <mxGeometry x="2640" y="740" width="240" height="20" as="geometry" />
        </mxCell>
        <mxCell id="PjgOYG76Z9MTVnk4mTRI-33" value="&lt;div&gt;Time taken to respond to complaints&lt;/div&gt;" style="rounded=0;whiteSpace=wrap;html=1;" vertex="1" parent="1">
          <mxGeometry x="2640" y="760" width="240" height="20" as="geometry" />
        </mxCell>
        <mxCell id="PjgOYG76Z9MTVnk4mTRI-34" value="&lt;div&gt;Quality of responses&lt;/div&gt;" style="rounded=0;whiteSpace=wrap;html=1;" vertex="1" parent="1">
          <mxGeometry x="2640" y="780" width="240" height="20" as="geometry" />
        </mxCell>
      </root>
    </mxGraphModel>
  </diagram>
</mxfile>
